<mxfile host="app.diagrams.net" agent="Mozilla/5.0 (Windows NT 10.0; Win64; x64) AppleWebKit/537.36 (KHTML, like Gecko) Chrome/137.0.0.0 Safari/537.36" version="27.1.5" pages="6">
  <diagram name="Home / landing page" id="0xxpcBwfbIviUKNza3PG">
    <mxGraphModel dx="874" dy="609" grid="1" gridSize="10" guides="1" tooltips="1" connect="1" arrows="1" fold="1" page="1" pageScale="1" pageWidth="850" pageHeight="1100" math="0" shadow="0">
      <root>
        <mxCell id="fU7Q3m8re4CMYG8ByVWo-0" />
        <mxCell id="fU7Q3m8re4CMYG8ByVWo-1" parent="fU7Q3m8re4CMYG8ByVWo-0" />
        <mxCell id="fU7Q3m8re4CMYG8ByVWo-2" value="navigation bar" style="rounded=0;whiteSpace=wrap;html=1;" vertex="1" parent="fU7Q3m8re4CMYG8ByVWo-1">
          <mxGeometry x="10" y="40" width="830" height="40" as="geometry" />
        </mxCell>
        <mxCell id="fU7Q3m8re4CMYG8ByVWo-3" value="Image Carousel" style="rounded=0;whiteSpace=wrap;html=1;" vertex="1" parent="fU7Q3m8re4CMYG8ByVWo-1">
          <mxGeometry x="15" y="90" width="820" height="140" as="geometry" />
        </mxCell>
        <mxCell id="svChWP4_dw1vwNARO0Ed-1" value="Use code &quot;FREESHIP&quot;&amp;nbsp; at checkout for free shipping on all orders this month" style="rounded=0;whiteSpace=wrap;html=1;" vertex="1" parent="fU7Q3m8re4CMYG8ByVWo-1">
          <mxGeometry x="10" y="10" width="830" height="20" as="geometry" />
        </mxCell>
        <mxCell id="z3yPgaxscQnyXk3fagcJ-0" value="Image / text&lt;div&gt;&quot;Nation-wide shipping&quot;&lt;/div&gt;" style="rounded=0;whiteSpace=wrap;html=1;" vertex="1" parent="fU7Q3m8re4CMYG8ByVWo-1">
          <mxGeometry x="110" y="270" width="630" height="110" as="geometry" />
        </mxCell>
        <mxCell id="z3yPgaxscQnyXk3fagcJ-1" value="" style="endArrow=classic;html=1;rounded=0;" edge="1" parent="fU7Q3m8re4CMYG8ByVWo-1">
          <mxGeometry width="50" height="50" relative="1" as="geometry">
            <mxPoint x="440" y="450" as="sourcePoint" />
            <mxPoint x="440" y="490" as="targetPoint" />
          </mxGeometry>
        </mxCell>
        <mxCell id="z3yPgaxscQnyXk3fagcJ-2" value="Image / text&lt;div&gt;&quot;Made to order&quot;&lt;/div&gt;" style="rounded=0;whiteSpace=wrap;html=1;" vertex="1" parent="fU7Q3m8re4CMYG8ByVWo-1">
          <mxGeometry x="110" y="520" width="630" height="110" as="geometry" />
        </mxCell>
        <mxCell id="z3yPgaxscQnyXk3fagcJ-3" value="" style="endArrow=classic;html=1;rounded=0;" edge="1" parent="fU7Q3m8re4CMYG8ByVWo-1">
          <mxGeometry width="50" height="50" relative="1" as="geometry">
            <mxPoint x="440" y="710" as="sourcePoint" />
            <mxPoint x="440" y="750" as="targetPoint" />
          </mxGeometry>
        </mxCell>
        <mxCell id="z3yPgaxscQnyXk3fagcJ-4" value="Image / text / button&lt;div&gt;&quot;More to love? custom and bulk orders&quot;&lt;/div&gt;" style="rounded=0;whiteSpace=wrap;html=1;" vertex="1" parent="fU7Q3m8re4CMYG8ByVWo-1">
          <mxGeometry x="110" y="820" width="630" height="110" as="geometry" />
        </mxCell>
        <mxCell id="z3yPgaxscQnyXk3fagcJ-5" value="Footer" style="rounded=1;whiteSpace=wrap;html=1;" vertex="1" parent="fU7Q3m8re4CMYG8ByVWo-1">
          <mxGeometry x="60" y="1060" width="730" height="30" as="geometry" />
        </mxCell>
      </root>
    </mxGraphModel>
  </diagram>
  <diagram name="Menu page" id="nUuBWuRyiQrnW8RBWXNY">
    <mxGraphModel dx="874" dy="609" grid="1" gridSize="10" guides="1" tooltips="1" connect="1" arrows="1" fold="1" page="1" pageScale="1" pageWidth="850" pageHeight="1100" math="0" shadow="0">
      <root>
        <mxCell id="0" />
        <mxCell id="1" parent="0" />
        <mxCell id="xQ0q0IWnDGqyeHLOwBQW-1" value="navigation bar" style="rounded=0;whiteSpace=wrap;html=1;" vertex="1" parent="1">
          <mxGeometry x="10" y="40" width="830" height="40" as="geometry" />
        </mxCell>
        <mxCell id="xQ0q0IWnDGqyeHLOwBQW-2" value="Image Carousel" style="rounded=0;whiteSpace=wrap;html=1;" vertex="1" parent="1">
          <mxGeometry x="15" y="90" width="820" height="140" as="geometry" />
        </mxCell>
        <mxCell id="xQ0q0IWnDGqyeHLOwBQW-32" value="" style="edgeStyle=orthogonalEdgeStyle;rounded=0;orthogonalLoop=1;jettySize=auto;html=1;" edge="1" parent="1" source="xQ0q0IWnDGqyeHLOwBQW-3" target="xQ0q0IWnDGqyeHLOwBQW-6">
          <mxGeometry relative="1" as="geometry" />
        </mxCell>
        <mxCell id="xQ0q0IWnDGqyeHLOwBQW-3" value="Menu" style="rounded=0;whiteSpace=wrap;html=1;" vertex="1" parent="1">
          <mxGeometry x="340" y="270" width="170" height="60" as="geometry" />
        </mxCell>
        <mxCell id="xQ0q0IWnDGqyeHLOwBQW-31" value="" style="edgeStyle=orthogonalEdgeStyle;rounded=0;orthogonalLoop=1;jettySize=auto;html=1;" edge="1" parent="1" source="xQ0q0IWnDGqyeHLOwBQW-4" target="xQ0q0IWnDGqyeHLOwBQW-8">
          <mxGeometry relative="1" as="geometry" />
        </mxCell>
        <mxCell id="xQ0q0IWnDGqyeHLOwBQW-4" value="Card 1" style="whiteSpace=wrap;html=1;aspect=fixed;" vertex="1" parent="1">
          <mxGeometry x="140" y="390" width="80" height="80" as="geometry" />
        </mxCell>
        <mxCell id="xQ0q0IWnDGqyeHLOwBQW-24" value="" style="edgeStyle=orthogonalEdgeStyle;rounded=0;orthogonalLoop=1;jettySize=auto;html=1;" edge="1" parent="1" source="xQ0q0IWnDGqyeHLOwBQW-5" target="xQ0q0IWnDGqyeHLOwBQW-6">
          <mxGeometry relative="1" as="geometry" />
        </mxCell>
        <mxCell id="xQ0q0IWnDGqyeHLOwBQW-30" value="" style="edgeStyle=orthogonalEdgeStyle;rounded=0;orthogonalLoop=1;jettySize=auto;html=1;" edge="1" parent="1" source="xQ0q0IWnDGqyeHLOwBQW-5" target="xQ0q0IWnDGqyeHLOwBQW-10">
          <mxGeometry relative="1" as="geometry" />
        </mxCell>
        <mxCell id="xQ0q0IWnDGqyeHLOwBQW-5" value="Card 2" style="whiteSpace=wrap;html=1;aspect=fixed;" vertex="1" parent="1">
          <mxGeometry x="260" y="390" width="80" height="80" as="geometry" />
        </mxCell>
        <mxCell id="xQ0q0IWnDGqyeHLOwBQW-25" value="" style="edgeStyle=orthogonalEdgeStyle;rounded=0;orthogonalLoop=1;jettySize=auto;html=1;" edge="1" parent="1" source="xQ0q0IWnDGqyeHLOwBQW-6" target="xQ0q0IWnDGqyeHLOwBQW-7">
          <mxGeometry relative="1" as="geometry" />
        </mxCell>
        <mxCell id="xQ0q0IWnDGqyeHLOwBQW-29" value="" style="edgeStyle=orthogonalEdgeStyle;rounded=0;orthogonalLoop=1;jettySize=auto;html=1;" edge="1" parent="1" source="xQ0q0IWnDGqyeHLOwBQW-6" target="xQ0q0IWnDGqyeHLOwBQW-11">
          <mxGeometry relative="1" as="geometry" />
        </mxCell>
        <mxCell id="xQ0q0IWnDGqyeHLOwBQW-6" value="Card 3" style="whiteSpace=wrap;html=1;aspect=fixed;" vertex="1" parent="1">
          <mxGeometry x="385" y="390" width="80" height="80" as="geometry" />
        </mxCell>
        <mxCell id="xQ0q0IWnDGqyeHLOwBQW-26" value="" style="edgeStyle=orthogonalEdgeStyle;rounded=0;orthogonalLoop=1;jettySize=auto;html=1;" edge="1" parent="1" source="xQ0q0IWnDGqyeHLOwBQW-7" target="xQ0q0IWnDGqyeHLOwBQW-9">
          <mxGeometry relative="1" as="geometry" />
        </mxCell>
        <mxCell id="xQ0q0IWnDGqyeHLOwBQW-28" value="" style="edgeStyle=orthogonalEdgeStyle;rounded=0;orthogonalLoop=1;jettySize=auto;html=1;" edge="1" parent="1" source="xQ0q0IWnDGqyeHLOwBQW-7" target="xQ0q0IWnDGqyeHLOwBQW-12">
          <mxGeometry relative="1" as="geometry" />
        </mxCell>
        <mxCell id="xQ0q0IWnDGqyeHLOwBQW-7" value="Card 4" style="whiteSpace=wrap;html=1;aspect=fixed;" vertex="1" parent="1">
          <mxGeometry x="510" y="390" width="80" height="80" as="geometry" />
        </mxCell>
        <mxCell id="xQ0q0IWnDGqyeHLOwBQW-14" value="" style="edgeStyle=orthogonalEdgeStyle;rounded=0;orthogonalLoop=1;jettySize=auto;html=1;" edge="1" parent="1" source="xQ0q0IWnDGqyeHLOwBQW-8" target="xQ0q0IWnDGqyeHLOwBQW-10">
          <mxGeometry relative="1" as="geometry" />
        </mxCell>
        <mxCell id="xQ0q0IWnDGqyeHLOwBQW-8" value="Card 6" style="whiteSpace=wrap;html=1;aspect=fixed;" vertex="1" parent="1">
          <mxGeometry x="140" y="520" width="80" height="80" as="geometry" />
        </mxCell>
        <mxCell id="xQ0q0IWnDGqyeHLOwBQW-27" value="" style="edgeStyle=orthogonalEdgeStyle;rounded=0;orthogonalLoop=1;jettySize=auto;html=1;" edge="1" parent="1" source="xQ0q0IWnDGqyeHLOwBQW-9" target="xQ0q0IWnDGqyeHLOwBQW-13">
          <mxGeometry relative="1" as="geometry" />
        </mxCell>
        <mxCell id="xQ0q0IWnDGqyeHLOwBQW-9" value="Card 5" style="whiteSpace=wrap;html=1;aspect=fixed;" vertex="1" parent="1">
          <mxGeometry x="640" y="390" width="80" height="80" as="geometry" />
        </mxCell>
        <mxCell id="xQ0q0IWnDGqyeHLOwBQW-10" value="Card 7" style="whiteSpace=wrap;html=1;aspect=fixed;" vertex="1" parent="1">
          <mxGeometry x="260" y="520" width="80" height="80" as="geometry" />
        </mxCell>
        <mxCell id="xQ0q0IWnDGqyeHLOwBQW-19" value="" style="edgeStyle=orthogonalEdgeStyle;rounded=0;orthogonalLoop=1;jettySize=auto;html=1;" edge="1" parent="1" source="xQ0q0IWnDGqyeHLOwBQW-11" target="xQ0q0IWnDGqyeHLOwBQW-12">
          <mxGeometry relative="1" as="geometry" />
        </mxCell>
        <mxCell id="xQ0q0IWnDGqyeHLOwBQW-11" value="Card 8" style="whiteSpace=wrap;html=1;aspect=fixed;" vertex="1" parent="1">
          <mxGeometry x="385" y="520" width="80" height="80" as="geometry" />
        </mxCell>
        <mxCell id="xQ0q0IWnDGqyeHLOwBQW-22" value="" style="edgeStyle=orthogonalEdgeStyle;rounded=0;orthogonalLoop=1;jettySize=auto;html=1;" edge="1" parent="1" source="xQ0q0IWnDGqyeHLOwBQW-12" target="xQ0q0IWnDGqyeHLOwBQW-13">
          <mxGeometry relative="1" as="geometry" />
        </mxCell>
        <mxCell id="xQ0q0IWnDGqyeHLOwBQW-12" value="Card 9" style="whiteSpace=wrap;html=1;aspect=fixed;" vertex="1" parent="1">
          <mxGeometry x="510" y="520" width="80" height="80" as="geometry" />
        </mxCell>
        <mxCell id="xQ0q0IWnDGqyeHLOwBQW-13" value="Card 10" style="whiteSpace=wrap;html=1;aspect=fixed;" vertex="1" parent="1">
          <mxGeometry x="640" y="520" width="80" height="80" as="geometry" />
        </mxCell>
        <mxCell id="xQ0q0IWnDGqyeHLOwBQW-18" value="" style="edgeStyle=orthogonalEdgeStyle;rounded=0;orthogonalLoop=1;jettySize=auto;html=1;" edge="1" parent="1">
          <mxGeometry relative="1" as="geometry">
            <mxPoint x="345" y="559.5" as="sourcePoint" />
            <mxPoint x="385" y="559.5" as="targetPoint" />
            <Array as="points">
              <mxPoint x="345" y="559.5" />
              <mxPoint x="345" y="559.5" />
            </Array>
          </mxGeometry>
        </mxCell>
        <mxCell id="xQ0q0IWnDGqyeHLOwBQW-23" value="" style="edgeStyle=orthogonalEdgeStyle;rounded=0;orthogonalLoop=1;jettySize=auto;html=1;entryX=0;entryY=0.5;entryDx=0;entryDy=0;exitX=1;exitY=0.5;exitDx=0;exitDy=0;" edge="1" parent="1" source="xQ0q0IWnDGqyeHLOwBQW-4" target="xQ0q0IWnDGqyeHLOwBQW-5">
          <mxGeometry relative="1" as="geometry">
            <mxPoint x="240" y="430" as="sourcePoint" />
            <mxPoint x="250" y="430" as="targetPoint" />
          </mxGeometry>
        </mxCell>
        <mxCell id="gH6YupVZW2HOuqLoCwZw-2" value="Use code &quot;FREESHIP&quot;&amp;nbsp; at checkout for free shipping on all orders this month" style="rounded=0;whiteSpace=wrap;html=1;" vertex="1" parent="1">
          <mxGeometry x="20" y="10" width="820" height="20" as="geometry" />
        </mxCell>
      </root>
    </mxGraphModel>
  </diagram>
  <diagram name="Special Orders page" id="m865XOzJ6zgA_eI9m6dH">
    <mxGraphModel dx="874" dy="609" grid="1" gridSize="10" guides="1" tooltips="1" connect="1" arrows="1" fold="1" page="1" pageScale="1" pageWidth="850" pageHeight="1100" math="0" shadow="0">
      <root>
        <mxCell id="c_wKi-MqBqauW3Z4gjH3-0" />
        <mxCell id="c_wKi-MqBqauW3Z4gjH3-1" parent="c_wKi-MqBqauW3Z4gjH3-0" />
        <mxCell id="c_wKi-MqBqauW3Z4gjH3-2" value="navigation bar" style="rounded=0;whiteSpace=wrap;html=1;" vertex="1" parent="c_wKi-MqBqauW3Z4gjH3-1">
          <mxGeometry x="10" y="40" width="830" height="40" as="geometry" />
        </mxCell>
        <mxCell id="c_wKi-MqBqauW3Z4gjH3-3" value="Image Carousel" style="rounded=0;whiteSpace=wrap;html=1;" vertex="1" parent="c_wKi-MqBqauW3Z4gjH3-1">
          <mxGeometry x="15" y="90" width="820" height="140" as="geometry" />
        </mxCell>
        <mxCell id="c_wKi-MqBqauW3Z4gjH3-7" value="Card 1&lt;div&gt;Holiday orders&lt;/div&gt;&lt;div&gt;image&lt;/div&gt;" style="whiteSpace=wrap;html=1;aspect=fixed;" vertex="1" parent="c_wKi-MqBqauW3Z4gjH3-1">
          <mxGeometry x="120" y="660" width="100" height="100" as="geometry" />
        </mxCell>
        <mxCell id="c_wKi-MqBqauW3Z4gjH3-10" value="Card 2&lt;div&gt;Special events&lt;/div&gt;&lt;div&gt;image&lt;/div&gt;" style="whiteSpace=wrap;html=1;aspect=fixed;" vertex="1" parent="c_wKi-MqBqauW3Z4gjH3-1">
          <mxGeometry x="375" y="660" width="100" height="100" as="geometry" />
        </mxCell>
        <mxCell id="c_wKi-MqBqauW3Z4gjH3-13" value="Card 3&lt;div&gt;More to love&lt;/div&gt;&lt;div&gt;image&lt;/div&gt;" style="whiteSpace=wrap;html=1;aspect=fixed;" vertex="1" parent="c_wKi-MqBqauW3Z4gjH3-1">
          <mxGeometry x="630" y="660" width="100" height="100" as="geometry" />
        </mxCell>
        <mxCell id="c_wKi-MqBqauW3Z4gjH3-29" value="Use code &quot;FREESHIP&quot;&amp;nbsp; at checkout for free shipping on all orders this month" style="rounded=0;whiteSpace=wrap;html=1;" vertex="1" parent="c_wKi-MqBqauW3Z4gjH3-1">
          <mxGeometry x="20" y="10" width="820" height="20" as="geometry" />
        </mxCell>
        <mxCell id="Sxz1bV468TgxucJKCvyc-0" value="Footer" style="rounded=1;whiteSpace=wrap;html=1;" vertex="1" parent="c_wKi-MqBqauW3Z4gjH3-1">
          <mxGeometry x="60" y="1050" width="730" height="30" as="geometry" />
        </mxCell>
        <mxCell id="Sxz1bV468TgxucJKCvyc-3" value="&lt;h1 style=&quot;margin-top: 0px;&quot;&gt;Heading - Request an order&lt;/h1&gt;&lt;p&gt;&lt;span style=&quot;font-family: Aptos, sans-serif; font-size: 12pt; background-color: transparent; color: light-dark(rgb(0, 0, 0), rgb(255, 255, 255));&quot;&gt;In our &lt;/span&gt;&lt;b style=&quot;font-family: Aptos, sans-serif; font-size: 12pt; background-color: transparent; color: light-dark(rgb(0, 0, 0), rgb(255, 255, 255));&quot;&gt;contact form (link)&lt;/b&gt;&lt;span style=&quot;font-family: Aptos, sans-serif; font-size: 12pt; background-color: transparent; color: light-dark(rgb(0, 0, 0), rgb(255, 255, 255));&quot;&gt;, select custom or bulk order, and include your&lt;br&gt;name, number or email, and request details&lt;/span&gt;.&lt;/p&gt;" style="text;html=1;whiteSpace=wrap;overflow=hidden;rounded=0;" vertex="1" parent="c_wKi-MqBqauW3Z4gjH3-1">
          <mxGeometry x="257" y="270" width="337" height="130" as="geometry" />
        </mxCell>
        <mxCell id="Sxz1bV468TgxucJKCvyc-5" value="Button&lt;div&gt;Contact page&lt;/div&gt;" style="rounded=0;whiteSpace=wrap;html=1;" vertex="1" parent="c_wKi-MqBqauW3Z4gjH3-1">
          <mxGeometry x="365" y="470" width="120" height="60" as="geometry" />
        </mxCell>
      </root>
    </mxGraphModel>
  </diagram>
  <diagram name="About page" id="WNp5ZbJjI22-yah_PYJ-">
    <mxGraphModel dx="874" dy="609" grid="1" gridSize="10" guides="1" tooltips="1" connect="1" arrows="1" fold="1" page="1" pageScale="1" pageWidth="850" pageHeight="1100" math="0" shadow="0">
      <root>
        <mxCell id="iFhLkIi514pOYzyIV1Rz-0" />
        <mxCell id="iFhLkIi514pOYzyIV1Rz-1" parent="iFhLkIi514pOYzyIV1Rz-0" />
        <mxCell id="iFhLkIi514pOYzyIV1Rz-2" value="navigation bar" style="rounded=0;whiteSpace=wrap;html=1;" vertex="1" parent="iFhLkIi514pOYzyIV1Rz-1">
          <mxGeometry x="10" y="40" width="830" height="40" as="geometry" />
        </mxCell>
        <mxCell id="iFhLkIi514pOYzyIV1Rz-3" value="Image Carousel" style="rounded=0;whiteSpace=wrap;html=1;" vertex="1" parent="iFhLkIi514pOYzyIV1Rz-1">
          <mxGeometry x="15" y="90" width="820" height="140" as="geometry" />
        </mxCell>
        <mxCell id="iFhLkIi514pOYzyIV1Rz-7" value="Use code &quot;FREESHIP&quot;&amp;nbsp; at checkout for free shipping on all orders this month" style="rounded=0;whiteSpace=wrap;html=1;" vertex="1" parent="iFhLkIi514pOYzyIV1Rz-1">
          <mxGeometry x="20" y="10" width="820" height="20" as="geometry" />
        </mxCell>
        <mxCell id="iFhLkIi514pOYzyIV1Rz-8" value="Footer" style="rounded=1;whiteSpace=wrap;html=1;" vertex="1" parent="iFhLkIi514pOYzyIV1Rz-1">
          <mxGeometry x="60" y="1050" width="730" height="30" as="geometry" />
        </mxCell>
        <mxCell id="iFhLkIi514pOYzyIV1Rz-9" value="&lt;h1 style=&quot;margin-top: 0px;&quot;&gt;Heading - Request an order&lt;/h1&gt;&lt;p&gt;&lt;span style=&quot;font-family: Aptos, sans-serif; font-size: 12pt; background-color: transparent; color: light-dark(rgb(0, 0, 0), rgb(255, 255, 255));&quot;&gt;In our &lt;/span&gt;&lt;b style=&quot;font-family: Aptos, sans-serif; font-size: 12pt; background-color: transparent; color: light-dark(rgb(0, 0, 0), rgb(255, 255, 255));&quot;&gt;contact form (link)&lt;/b&gt;&lt;span style=&quot;font-family: Aptos, sans-serif; font-size: 12pt; background-color: transparent; color: light-dark(rgb(0, 0, 0), rgb(255, 255, 255));&quot;&gt;, select custom or bulk order, and include your&lt;br&gt;name, number or email, and request details&lt;/span&gt;.&lt;/p&gt;" style="text;html=1;whiteSpace=wrap;overflow=hidden;rounded=0;" vertex="1" parent="iFhLkIi514pOYzyIV1Rz-1">
          <mxGeometry x="230" y="320" width="370" height="330" as="geometry" />
        </mxCell>
        <mxCell id="ifWVcy1A8n8fcqH0i7-M-0" value="Video Carousel" style="rounded=0;whiteSpace=wrap;html=1;" vertex="1" parent="iFhLkIi514pOYzyIV1Rz-1">
          <mxGeometry x="140" y="730" width="570" height="160" as="geometry" />
        </mxCell>
      </root>
    </mxGraphModel>
  </diagram>
  <diagram id="gVjKdOxFGvez3S9Nf6Or" name="Contact Page">
    <mxGraphModel dx="874" dy="609" grid="1" gridSize="10" guides="1" tooltips="1" connect="1" arrows="1" fold="1" page="1" pageScale="1" pageWidth="850" pageHeight="1100" math="0" shadow="0">
      <root>
        <mxCell id="0" />
        <mxCell id="1" parent="0" />
        <mxCell id="Zev9iwAg-ebSoZM0gIuq-1" value="&lt;h1 style=&quot;margin-top: 0px;&quot;&gt;Heading - Talk to us here!&lt;/h1&gt;&lt;p&gt;Lorem ipsum dolor sit amet, consectetur adipisicing elit, sed do eiusmod tempor incididunt ut labore et dolore magna aliqua.&lt;/p&gt;" style="text;html=1;whiteSpace=wrap;overflow=hidden;rounded=0;" vertex="1" parent="1">
          <mxGeometry x="145" y="190" width="560" height="120" as="geometry" />
        </mxCell>
        <mxCell id="Zev9iwAg-ebSoZM0gIuq-2" value="Contact form - minimum 3 fields&lt;div&gt;drop down&lt;/div&gt;" style="rounded=0;whiteSpace=wrap;html=1;" vertex="1" parent="1">
          <mxGeometry x="365" y="440" width="120" height="60" as="geometry" />
        </mxCell>
        <mxCell id="fNGbZjskR2NFVDKoPGRX-1" value="Use code &quot;FREESHIP&quot;&amp;nbsp; at checkout for free shipping on all orders this month" style="rounded=0;whiteSpace=wrap;html=1;" vertex="1" parent="1">
          <mxGeometry x="15" y="20" width="820" height="20" as="geometry" />
        </mxCell>
        <mxCell id="sdddsepyMo9LI_QE0L-f-1" value="navigation bar" style="rounded=0;whiteSpace=wrap;html=1;" vertex="1" parent="1">
          <mxGeometry x="10" y="50" width="830" height="40" as="geometry" />
        </mxCell>
        <mxCell id="6E6zg_a-BASOBRdnswaP-1" value="Footer" style="rounded=1;whiteSpace=wrap;html=1;" vertex="1" parent="1">
          <mxGeometry x="60" y="1050" width="730" height="30" as="geometry" />
        </mxCell>
      </root>
    </mxGraphModel>
  </diagram>
  <diagram name="Shopping cart checkout" id="WfBbXVTHrjcZ-OllISW1">
    <mxGraphModel dx="874" dy="609" grid="1" gridSize="10" guides="1" tooltips="1" connect="1" arrows="1" fold="1" page="1" pageScale="1" pageWidth="850" pageHeight="1100" math="0" shadow="0">
      <root>
        <mxCell id="6V0-NJVF8REbn2BVC5Q9-0" />
        <mxCell id="6V0-NJVF8REbn2BVC5Q9-1" parent="6V0-NJVF8REbn2BVC5Q9-0" />
        <mxCell id="6V0-NJVF8REbn2BVC5Q9-3" value="Checkout order / purchase" style="rounded=0;whiteSpace=wrap;html=1;" vertex="1" parent="6V0-NJVF8REbn2BVC5Q9-1">
          <mxGeometry x="195" y="350" width="460" height="120" as="geometry" />
        </mxCell>
        <mxCell id="6V0-NJVF8REbn2BVC5Q9-4" value="Use code &quot;FREESHIP&quot;&amp;nbsp; at checkout for free shipping on all orders this month" style="rounded=0;whiteSpace=wrap;html=1;" vertex="1" parent="6V0-NJVF8REbn2BVC5Q9-1">
          <mxGeometry x="15" y="20" width="820" height="20" as="geometry" />
        </mxCell>
        <mxCell id="6V0-NJVF8REbn2BVC5Q9-5" value="navigation bar" style="rounded=0;whiteSpace=wrap;html=1;" vertex="1" parent="6V0-NJVF8REbn2BVC5Q9-1">
          <mxGeometry x="10" y="50" width="830" height="40" as="geometry" />
        </mxCell>
        <mxCell id="6V0-NJVF8REbn2BVC5Q9-6" value="Footer" style="rounded=1;whiteSpace=wrap;html=1;" vertex="1" parent="6V0-NJVF8REbn2BVC5Q9-1">
          <mxGeometry x="60" y="1050" width="730" height="30" as="geometry" />
        </mxCell>
        <mxCell id="48OID60sx6KRiP8FlaH5-0" value="button&lt;div&gt;submit&lt;/div&gt;" style="rounded=0;whiteSpace=wrap;html=1;" vertex="1" parent="6V0-NJVF8REbn2BVC5Q9-1">
          <mxGeometry x="195" y="600" width="120" height="60" as="geometry" />
        </mxCell>
      </root>
    </mxGraphModel>
  </diagram>
</mxfile>
